<?xml version="1.0" encoding="UTF-8" standalone="no"?>
<!-- Created with Inkscape (http://www.inkscape.org/) -->

<svg
   xmlns:dc="http://purl.org/dc/elements/1.1/"
   xmlns:cc="http://creativecommons.org/ns#"
   xmlns:rdf="http://www.w3.org/1999/02/22-rdf-syntax-ns#"
   xmlns:svg="http://www.w3.org/2000/svg"
   xmlns="http://www.w3.org/2000/svg"
   xmlns:sodipodi="http://sodipodi.sourceforge.net/DTD/sodipodi-0.dtd"
   xmlns:inkscape="http://www.inkscape.org/namespaces/inkscape"
   width="158.47656mm"
   height="155.79675mm"
   viewBox="0 0 158.47656 155.79675"
   version="1.1">
  <g
     inkscape:label="Layer 1"
     inkscape:groupmode="layer"
     id="layer1"
     transform="translate(-29.432063,-75.103514)">
    <path
       inkscape:connector-curvature="0"
       id="path4533"
       d="M 89.153646,215.45449 C 56.377718,206.98007 29.503178,199.87283 29.432444,199.66063 29.307525,199.28587 59.929457,79.91644 60.226785,79.61911 c 0.08174,-0.0817 0.208756,-0.0825 0.282272,-0.002 0.282673,0.31087 36.262599,61.45275 36.604709,62.20359 0.28606,0.62784 -0.15428,2.79659 -2.11378,10.41063 -1.36131,5.28967 -2.39735,9.82023 -2.30231,10.06792 0.0982,0.25588 4.37673,1.52974 9.908444,2.95007 5.35459,1.37485 9.85278,2.62624 9.99598,2.78087 0.30073,0.32474 37.02608,62.59113 37.02608,62.77628 0,0.0676 -0.19843,0.10779 -0.44097,0.0893 -0.24253,-0.0185 -27.25764,-6.96724 -60.033564,-15.44165 z m 49.067224,-20.30179 -18.59588,-31.52831 2.51521,-9.74033 c 1.38337,-5.35718 2.43732,-9.94331 2.34212,-10.1914 -0.0985,-0.2568 -4.30525,-1.50965 -9.76777,-2.90906 -5.27707,-1.35191 -9.73465,-2.54326 -9.90574,-2.64745 -0.34306,-0.20894 -37.38249,-62.89435 -37.244448,-63.0324 0.09882,-0.0988 120.187358,30.84588 120.343948,31.01051 0.11357,0.11941 -30.77686,120.25204 -30.97107,120.44626 -0.0663,0.0663 -8.48863,-14.06725 -18.71637,-31.40782 z"
       style="fill:#b39bcf;stroke-width:1.32291667;fill-opacity:1;stroke:none;stroke-opacity:1;stroke-miterlimit:4;stroke-dasharray:none"
       inkscape:export-xdpi="3.8149681"
       inkscape:export-ydpi="3.8149681" />
    <path
       style="fill:#000000;stroke-width:0.99999994"
       d=""
       id="path4529"
       inkscape:connector-curvature="0" />
  </g>
</svg>
